<?xml version="1.0" encoding="UTF-8"?> <svg xmlns="http://www.w3.org/2000/svg" width="46" height="48" viewBox="0 0 46 48" fill="none"><path d="M24.706 1.92322C16.802 1.92322 10.43 8.21107 10.3458 16.1993L8.22459 24.6083C8.14041 24.945 8.39293 25.2901 8.73805 25.2901H13.4939V27.9248C13.4939 28.1773 13.7464 28.4383 14.0074 28.4383C14.0074 28.4383 17.3239 28.6066 18.174 31.4096L13.7549 34.9786C13.5865 35.147 13.5023 35.3153 13.5865 35.5763C13.6707 35.8288 13.839 35.913 14.1 35.913H19.9585C19.9585 45.6857 19.9585 45.0039 19.9585 45.088C19.9585 45.088 19.9585 45.1722 20.0427 45.1722C20.1269 45.2564 20.2111 45.3406 20.3794 45.4247C20.4636 45.4247 19.0242 45.4247 39.5797 45.4247C39.8322 45.4247 40.0931 45.1722 40.0931 44.9113V17.3019C40.0931 8.80871 33.2077 1.92322 24.7144 1.92322H24.706ZM39.0662 37.0999L20.9686 44.1537V42.1167L39.0662 35.0628V37.0999ZM23.2666 44.4062L38.982 38.2867V44.4062H23.2666ZM39.0662 33.9517L20.9686 41.0056V35.3995C20.9686 35.147 20.7161 34.8861 20.4552 34.8861H15.6151L19.1841 32.083C19.3525 31.9147 19.4367 31.7463 19.3525 31.5696C18.9316 29.9534 17.9047 28.6824 16.3811 28.0006C15.6993 27.6639 15.0175 27.5797 14.5966 27.4871V24.7682C14.5966 24.5157 14.3441 24.2548 14.0831 24.2548H9.49562C11.5327 15.9299 11.4485 16.4349 11.4485 16.2666C11.4485 8.96023 17.3996 3.00907 24.706 3.00907C32.61 3.00907 39.0662 9.46528 39.0662 17.3693V33.9349V33.9517Z" fill="white" stroke="white"></path><path d="M25.3036 5.07134C21.137 5.07134 17.3996 7.10837 15.1943 10.5932C15.0259 10.8457 15.1101 11.1909 15.3626 11.3592C15.6151 11.5275 15.9602 11.4434 16.1286 11.1909C18.1656 8.05113 21.5663 6.17403 25.3036 6.17403C25.5562 6.17403 25.8171 5.92151 25.8171 5.66057C25.8171 5.39963 25.6488 5.06293 25.3036 5.06293V5.07134Z" fill="white" stroke="white"></path><path d="M34.4787 0.904724C34.8996 0.904724 35.2447 1.24984 35.2447 1.67071C35.2447 2.09159 34.8996 2.4367 34.4787 2.4367C34.0578 2.4367 33.7127 2.09159 33.7127 1.67071C33.7127 1.24984 34.0578 0.904724 34.4787 0.904724Z" fill="white" stroke="white"></path><path d="M43.5696 43.3036C43.9926 43.3036 44.3356 42.9607 44.3356 42.5376C44.3356 42.1146 43.9926 41.7716 43.5696 41.7716C43.1465 41.7716 42.8036 42.1146 42.8036 42.5376C42.8036 42.9607 43.1465 43.3036 43.5696 43.3036Z" fill="white" stroke="white"></path><path d="M43.5696 17.302C43.9904 17.302 44.3356 17.6471 44.3356 18.068C44.3356 18.4888 43.9904 18.834 43.5696 18.834C43.1487 18.834 42.8036 18.4888 42.8036 18.068C42.8036 17.6471 43.1487 17.302 43.5696 17.302Z" fill="white" stroke="white"></path><path d="M15.3626 38.5392C15.7835 38.5392 16.1286 38.8844 16.1286 39.3052C16.1286 39.7261 15.7835 40.0712 15.3626 40.0712C14.9417 40.0712 14.5966 39.7261 14.5966 39.3052C14.5966 38.8844 14.9417 38.5392 15.3626 38.5392Z" fill="white" stroke="white"></path><path d="M7.97206 1.92322C8.39294 1.92322 8.73805 2.26833 8.73805 2.68921C8.73805 3.11008 8.39294 3.4552 7.97206 3.4552C7.55119 3.4552 7.20607 3.11008 7.20607 2.68921C7.20607 2.26833 7.55119 1.92322 7.97206 1.92322Z" fill="white" stroke="white"></path><path d="M2.10508 14.6674C2.52595 14.6674 2.87107 15.0125 2.87107 15.4334C2.87107 15.8543 2.52595 16.1994 2.10508 16.1994C1.68421 16.1994 1.33909 15.8543 1.33909 15.4334C1.33909 15.0125 1.68421 14.6674 2.10508 14.6674Z" fill="white" stroke="white"></path><path d="M10.0091 30.7279C9.84074 30.5595 9.49563 30.5595 9.2431 30.7279C7.87947 32.0831 7.87947 34.2969 9.2431 35.6521C9.41145 35.8205 9.75657 35.8205 10.0091 35.6521C10.1774 35.4838 10.1774 35.1386 10.0091 34.8861C9.07475 33.9518 9.07475 32.3356 10.0091 31.4013C10.2616 31.2329 10.2616 30.8878 10.0091 30.7195V30.7279Z" fill="white" stroke="white"></path><path d="M7.37442 28.0931C7.20607 27.9248 6.86096 27.9248 6.60843 28.0931C3.80541 30.8961 3.80541 35.4837 6.60843 38.3709C6.77678 38.5392 7.1219 38.5392 7.37442 38.3709C7.54277 38.2025 7.54277 37.8574 7.37442 37.6049C4.99228 35.2227 4.99228 31.317 7.37442 28.8507C7.62695 28.5982 7.62695 28.2531 7.37442 28.0847V28.0931Z" fill="white" stroke="white"></path><path d="M4.73975 26.1403C4.9081 25.9719 4.9081 25.6268 4.73975 25.3743C4.5714 25.2059 4.22629 25.2059 3.97376 25.3743C-0.277064 29.6251 -0.277064 36.5864 3.97376 40.9214C4.14211 41.0897 4.48723 41.0897 4.73975 40.9214C4.9081 40.753 4.9081 40.4079 4.73975 40.1554C0.918218 36.3338 0.918218 30.046 4.73975 26.1403Z" fill="white" stroke="white"></path><path d="M42.7194 4.04443C41.2716 4.04443 40.0847 5.2313 40.0847 6.6791C40.0847 8.12691 41.2716 9.31377 42.7194 9.31377C44.1672 9.31377 45.3541 8.12691 45.3541 6.6791C45.3541 5.2313 44.1672 4.04443 42.7194 4.04443ZM42.7194 8.29526C41.8692 8.29526 41.1032 7.61344 41.1032 6.6791C41.1032 5.74476 41.7851 5.06295 42.7194 5.06295C43.5696 5.06295 44.3356 5.74476 44.3356 6.6791C44.3356 7.61344 43.6537 8.29526 42.7194 8.29526Z" fill="white" stroke="white"></path><path d="M12.4754 42.7901C11.2886 42.7901 10.3542 43.7244 10.3542 44.9113C10.3542 46.0982 11.2886 47.0325 12.4754 47.0325C13.6623 47.0325 14.5966 46.0982 14.5966 44.9113C14.5966 43.7244 13.6623 42.7901 12.4754 42.7901ZM12.4754 46.0224C11.8778 46.0224 11.3727 45.5089 11.3727 44.9197C11.3727 44.3305 11.8862 43.817 12.4754 43.817C13.0646 43.817 13.5781 44.3305 13.5781 44.9197C13.5781 45.5089 13.0646 46.0224 12.4754 46.0224Z" fill="white" stroke="white"></path></svg> 