<?xml version="1.0" encoding="UTF-8"?> <svg xmlns="http://www.w3.org/2000/svg" width="52" height="51" viewBox="0 0 52 51" fill="none"><path d="M36.6719 31.109C33.4564 31.109 30.8385 33.7268 30.8385 36.9423C30.8385 40.1578 33.4564 42.7756 36.6719 42.7756C39.8873 42.7756 42.5052 40.1578 42.5052 36.9423C42.5052 33.7268 39.8873 31.109 36.6719 31.109ZM36.6719 41.6729C34.054 41.6729 31.9412 39.5601 31.9412 36.9423C31.9412 34.3245 34.054 32.2117 36.6719 32.2117C39.2897 32.2117 41.4025 34.3245 41.4025 36.9423C41.4025 39.5601 39.2897 41.6729 36.6719 41.6729Z" fill="white" stroke="white"></path><path d="M36.6718 23.6678H36.5877C32.0254 23.6678 27.884 26.0332 25.5187 29.922C23.4059 33.3059 19.8537 35.3345 15.9648 35.3345H10.8891C6.83187 35.3345 3.44805 38.6341 3.44805 42.7755C3.44805 46.9169 6.7477 50.2166 10.8891 50.2166H36.3351C39.8873 50.3007 43.5237 49.0297 46.1415 46.3277C48.6752 43.794 50.0304 40.4102 49.9462 36.858C49.7778 29.5012 43.8604 23.6678 36.6718 23.6678ZM45.2913 45.3934C42.8418 47.8428 39.6264 49.1139 36.1668 49.0297H10.8049C7.33692 49.0297 4.46656 46.1593 4.46656 42.6913C4.46656 39.2233 7.33692 36.353 10.8049 36.353H15.8807C20.1062 36.353 24.0793 34.156 26.3604 30.4355C28.5574 26.8833 32.3621 24.7705 36.5877 24.6864H36.6718C43.2627 24.6864 48.7593 30.0988 48.8435 36.6897C48.8435 39.9893 47.6566 43.1122 45.2913 45.3934Z" fill="white" stroke="white"></path><path d="M36.6719 27.0517C33.2039 27.0517 30.1652 28.8278 28.3049 31.6981C25.6029 36.0921 20.948 38.7099 15.8807 38.7099H10.805C8.608 38.7099 6.74774 40.486 6.74774 42.7671C6.74774 45.0483 8.52382 46.8243 10.805 46.8243H36.6719C39.2897 46.8243 41.8234 45.8058 43.6836 43.8698C45.5439 42.0096 46.554 39.4759 46.4698 36.8581C46.3856 31.4456 41.9917 27.0517 36.6634 27.0517H36.6719ZM42.9261 43.0281C41.2341 44.72 39.0372 45.6459 36.6719 45.6459H10.805C9.19722 45.6459 7.85043 44.2907 7.85043 42.6914C7.85043 41.092 9.20564 39.7368 10.805 39.7368H15.8807C21.2931 39.7368 26.2763 36.9506 29.2392 32.2116C30.847 29.6779 33.6332 28.0702 36.5961 28.0702H36.6803C41.4109 28.0702 45.384 31.9591 45.4681 36.6897C45.4681 39.1392 44.6264 41.3362 42.9345 43.0281H42.9261Z" fill="white" stroke="white"></path><path d="M50.4428 7.35476C50.1903 7.35476 49.9378 7.60728 49.9378 7.8598V8.96249H48.33C48.2459 7.60728 47.6566 6.34466 46.8906 5.41032L47.9933 4.30763L48.7509 5.0652C48.8351 5.14938 49.0034 5.23355 49.0876 5.23355C49.1718 5.23355 49.3401 5.14938 49.4243 5.0652C49.5927 4.89685 49.5927 4.56015 49.4243 4.30763L47.1432 2.02649C46.9748 1.85814 46.6381 1.85814 46.3856 2.02649C46.2172 2.19484 46.2172 2.53154 46.3856 2.78407L47.1432 3.54164L46.0405 4.56015C45.022 3.71841 43.8435 3.20494 42.4883 3.12076V1.51303H43.591C43.8435 1.51303 44.096 1.2605 44.096 1.00798C44.096 0.755454 43.8435 0.50293 43.591 0.50293H40.3755C40.123 0.50293 39.8705 0.755454 39.8705 1.00798C39.8705 1.2605 40.123 1.51303 40.3755 1.51303H41.4782V3.12076C40.0388 3.20494 38.8604 3.70999 37.8419 4.56015L36.7392 3.45746L37.4967 2.69989C37.6651 2.53154 37.6651 2.19484 37.4967 1.94232C37.3284 1.77397 36.9917 1.77397 36.7392 1.94232L34.458 4.22345C34.2897 4.3918 34.2897 4.7285 34.458 4.98103C34.6264 5.14938 34.9631 5.14938 35.2156 4.98103L35.9732 4.22345L37.0759 5.32614C36.2341 6.34466 35.7207 7.5231 35.6365 8.87832H34.0287V7.77563C34.0287 7.52311 33.7762 7.27058 33.5237 7.27058C33.2712 7.27058 33.0186 7.52311 33.0186 7.77563V10.9911C33.0186 11.2436 33.2712 11.4962 33.5237 11.4962C33.7762 11.4962 34.0287 11.2436 34.0287 10.9911V9.88842H35.6365C35.7207 11.2436 36.3099 12.5063 37.0759 13.4406L35.9732 14.5433L35.2156 13.7857C35.0473 13.6174 34.7106 13.6174 34.458 13.7857C34.2897 13.9541 34.2897 14.2908 34.458 14.5433L36.7392 16.8244C36.9075 16.9928 37.2442 16.9928 37.4967 16.8244C37.6651 16.6561 37.6651 16.3194 37.4967 16.0668L36.7392 15.3093L37.8419 14.2066C38.8604 15.0483 40.0388 15.5618 41.394 15.646V17.2537H40.2998C40.0472 17.2537 39.7947 17.5062 39.7947 17.7588C39.7947 18.0113 40.0472 18.2638 40.2998 18.2638H43.5152C43.7678 18.2638 44.0203 18.0113 44.0203 17.7588C44.0203 17.5062 43.7678 17.2537 43.5152 17.2537H42.4125V15.646C43.7678 15.5618 45.0304 14.9726 45.9647 14.2066L47.0674 15.3093L46.3098 16.0668C46.1415 16.2352 46.1415 16.5719 46.3098 16.8244C46.4782 16.9928 46.8149 16.9928 47.0674 16.8244L49.3485 14.5433C49.5169 14.3749 49.5169 14.0382 49.3485 13.7857C49.1802 13.6174 48.8435 13.6174 48.591 13.7857L47.8334 14.5433L46.8149 13.5248C47.6566 12.5147 48.1701 11.3278 48.2543 9.97259H49.862V11.0753C49.862 11.3278 50.1145 11.5803 50.3671 11.5803C50.6196 11.5803 50.8721 11.3278 50.8721 11.0753V7.94398C50.9563 7.52311 50.7038 7.35476 50.4512 7.35476H50.4428ZM41.9917 14.7116C39.1213 14.7116 36.6634 12.3463 36.6634 9.38337C36.6634 6.42042 39.0287 4.0551 41.9917 4.0551C44.9546 4.0551 47.3199 6.42042 47.3199 9.38337C47.3199 12.3463 44.8705 14.7116 41.9917 14.7116Z" fill="white" stroke="white"></path><path d="M43.5152 5.75543C42.6735 5.75543 41.9075 6.42883 41.9075 7.36317C41.9075 8.29751 42.5809 8.97091 43.5152 8.97091C44.357 8.97091 45.123 8.29751 45.123 7.36317C45.123 6.42883 44.4496 5.75543 43.5152 5.75543ZM43.5152 7.86822C43.2627 7.86822 43.0102 7.61569 43.0102 7.36317C43.0102 7.11065 43.2627 6.85812 43.5152 6.85812C43.7678 6.85812 44.0203 7.11065 44.0203 7.36317C44.0203 7.61569 43.8519 7.86822 43.5152 7.86822Z" fill="white" stroke="white"></path><path d="M40.8974 8.87827C39.7106 8.87827 38.7846 9.80419 38.7846 10.9911C38.7846 12.1779 39.7106 13.1038 40.8974 13.1038C42.0843 13.1038 43.0102 12.1779 43.0102 10.9911C43.0102 9.80419 42.0843 8.87827 40.8974 8.87827ZM40.8974 12.0937C40.3082 12.0937 39.8032 11.5887 39.8032 10.9911C39.8032 10.3934 40.3082 9.88836 40.8974 9.88836C41.4867 9.88836 42.0001 10.3934 42.0001 10.9911C42.0001 11.5887 41.4951 12.0937 40.8974 12.0937Z" fill="white" stroke="white"></path><path d="M11.815 28.9961C17.6483 28.9961 22.379 24.2655 22.379 18.4322C22.379 12.5988 17.6483 7.86823 11.815 7.86823C5.98172 7.86823 1.2511 12.5988 1.2511 18.4322C1.2511 24.2655 5.98172 28.9961 11.815 28.9961ZM11.815 8.87832C17.0591 8.87832 21.3689 13.1039 21.3689 18.4322C21.3689 23.7604 17.1433 27.986 11.815 27.986C6.48677 27.986 2.26961 23.7604 2.26961 18.4322C2.26961 13.1039 6.57936 8.87832 11.8234 8.87832H11.815Z" fill="white" stroke="white"></path><path d="M11.815 25.8733C13.2544 25.8733 14.6854 25.4524 15.8722 24.6864C16.0406 24.6022 16.1248 24.4339 16.1248 24.2655C16.1248 24.0972 16.1248 23.9288 15.9564 23.8447L6.40258 14.2908C6.15006 14.0383 5.81336 14.1225 5.56084 14.375C3.6164 17.3295 4.03727 21.2184 6.48676 23.6763C8.01032 25.0315 9.87058 25.8733 11.815 25.8733ZM6.15006 15.4693L14.7696 24.0888C12.4042 25.2756 9.44129 25.0147 7.32851 22.9019C5.38407 20.9575 4.87902 17.9188 6.14164 15.4609L6.15006 15.4693Z" fill="white" stroke="white"></path><path d="M17.2275 22.5736C17.3117 22.6578 17.48 22.742 17.6484 22.742C17.8167 22.742 17.9851 22.6578 18.0692 22.4895C20.0137 19.5349 19.5928 15.6461 17.1433 13.1882C14.6097 10.6545 10.6366 10.402 7.84201 12.2622C7.58948 12.4306 7.50531 12.8515 7.75783 13.104L17.2275 22.5736ZM16.3773 13.87C18.3218 15.8144 18.8268 18.8531 17.5642 21.311L8.9447 12.7757C11.31 11.5047 14.3571 11.8498 16.3857 13.8784L16.3773 13.87Z" fill="white" stroke="white"></path><path d="M24.5002 8.37327C26.5288 8.37327 28.2207 6.68136 28.2207 4.65275C28.2207 2.62413 26.5288 0.93222 24.5002 0.93222C22.4716 0.93222 20.7797 2.62413 20.7797 4.65275C20.7797 6.68136 22.4716 8.37327 24.5002 8.37327ZM24.5002 2.03491C25.9396 2.03491 27.118 3.22177 27.118 4.65275C27.118 6.08372 25.9312 7.27058 24.5002 7.27058C23.0692 7.27058 21.8823 6.08372 21.8823 4.65275C21.8823 3.22177 23.0692 2.03491 24.5002 2.03491Z" fill="white" stroke="white"></path><path d="M25.5944 20.0398C25.5944 21.8159 27.0338 23.2553 28.8099 23.2553C30.586 23.2553 32.0254 21.8159 32.0254 20.0398C32.0254 18.2637 30.586 16.8243 28.8099 16.8243C27.0338 16.8243 25.5944 18.2637 25.5944 20.0398ZM30.8385 20.0398C30.8385 21.2267 29.9126 22.1526 28.7257 22.1526C27.5389 22.1526 26.6129 21.2267 26.6129 20.0398C26.6129 18.853 27.5389 17.927 28.7257 17.927C29.9126 17.927 30.8385 18.853 30.8385 20.0398Z" fill="white" stroke="white"></path><path d="M47.7408 22.5735C47.825 22.1527 47.5725 21.7318 47.1516 21.6476C46.7307 21.5635 46.3098 21.816 46.2257 22.2369C46.1415 22.6577 46.394 23.0786 46.8149 23.1628C47.2358 23.2469 47.6566 22.9944 47.7408 22.5735Z" fill="white" stroke="white"></path><path d="M27.7072 11.0753C27.623 11.4961 27.8756 11.917 28.2964 12.0012C28.7173 12.0854 29.1382 11.8328 29.2224 11.412C29.3065 10.9911 29.054 10.5702 28.6331 10.486C28.2123 10.4019 27.7914 10.6544 27.7072 11.0753Z" fill="white" stroke="white"></path><path d="M9.28139 4.65273C9.70226 4.73691 10.1231 4.48438 10.2073 4.06351C10.2915 3.64264 10.039 3.22176 9.61809 3.13759C9.19721 3.05341 8.77634 3.30594 8.69216 3.72681C8.60799 4.14769 8.86051 4.56856 9.28139 4.65273Z" fill="white" stroke="white"></path><path d="M19.7611 30.0989C19.6769 30.5197 19.9295 30.9406 20.3503 31.0248C20.7712 31.1089 21.1921 30.8564 21.2763 30.4355C21.3604 30.0147 21.1079 29.5938 20.687 29.5096C20.2662 29.4255 19.8453 29.678 19.7611 30.0989Z" fill="white" stroke="white"></path><path d="M3.36389 31.1932C3.27971 31.614 3.53224 32.0349 3.95311 32.1191C4.37399 32.2032 4.79486 31.9507 4.87903 31.5298C4.96321 31.109 4.71069 30.6881 4.28981 30.6039C3.95311 30.5198 3.53224 30.7723 3.36389 31.1932Z" fill="white" stroke="white"></path></svg> 