<?xml version="1.0" encoding="UTF-8"?> <svg xmlns="http://www.w3.org/2000/svg" width="48" height="52" viewBox="0 0 48 52" fill="none"><path d="M37.4154 19.7196C36.2285 18.9621 35.05 18.6169 33.779 18.6169C31.7504 18.6169 29.9743 19.5429 28.5349 20.393C27.7773 20.8139 26.9272 21.2348 26.5063 21.2348H26.4221C26.338 21.1506 26.0854 20.9822 25.8329 20.4772C25.1595 18.7853 25.0753 15.8308 25.0753 13.9705C25.0753 13.9705 25.0753 14.1388 25.0753 4.07995C25.0753 2.21969 23.5518 0.780304 21.7757 0.780304C19.9996 0.780304 18.476 2.21969 18.476 4.07995V13.9705C18.476 16.42 18.476 19.2146 18.9811 21.5799C19.6545 24.7954 20.5046 25.4688 22.7858 26.824L22.87 26.9082C24.3093 27.7499 25.1511 28.9368 25.4036 30.292C25.7403 32.0681 25.1511 34.3492 23.6275 36.5462C23.0383 37.3879 22.104 37.9855 20.8413 38.3222C20.7572 38.3222 20.5888 38.3222 20.5046 38.4064C17.3733 38.9956 13.4087 37.9855 11.4643 37.9855C9.51984 37.9855 7.74375 38.8273 6.5653 40.3509C5.72356 41.4535 5.04174 42.8845 4.62087 44.7448C4.36834 45.5024 3.434 48.802 4.03164 50.6623C4.19999 51.0831 4.53669 51.4198 5.04174 51.4198C5.37844 51.4198 9.51984 51.4198 9.26731 51.4198C9.85654 51.4198 10.37 50.9148 10.2774 50.233C10.1932 47.1017 11.035 45.7549 11.1192 45.6707C11.1753 45.6146 11.2033 45.5585 11.2033 45.5024C11.7084 44.4838 12.306 44.3997 12.7269 44.3997C13.4845 44.3997 14.4188 44.8205 15.5131 45.5024C15.7656 45.6707 16.0181 45.8391 16.2707 46.0074C19.2252 47.9518 22.609 50.1488 27.5164 50.1488C34.3598 50.1488 39.2672 45.0815 41.8009 38.8189C44.8396 31.1253 44.082 24.0294 37.4069 19.7196H37.4154ZM39.949 37.8088C38.7622 40.7633 35.2184 47.7835 27.7773 47.8677C23.2992 47.9518 20.4205 45.9232 16.8767 43.6421C15.3532 42.6236 14.0905 42.2027 12.9037 42.2027C11.8851 42.2027 10.4542 42.6236 9.51984 44.3997C9.26731 44.8205 8.33297 46.2599 8.2488 49.2145H5.96766C5.96766 48.1118 6.30436 46.3441 6.64106 45.2414V45.1572C7.39864 42.2869 8.5855 39.9132 11.6242 39.9973C13.2319 39.9973 16.9525 40.9232 20.2437 40.5024C21.5989 43.2886 24.0484 44.9805 27.3481 44.5596C27.9373 44.4754 28.3666 43.9704 28.274 43.3727C28.1898 42.7835 27.6848 42.3626 27.0871 42.4468C24.3851 42.7835 22.9457 41.0916 22.3565 39.9973C23.6275 39.4923 24.6376 38.7263 25.4036 37.7162C25.572 37.4637 25.7403 37.2111 25.9087 36.9586C28.0215 36.0327 33.4339 34.3408 34.8649 36.7061C35.2016 37.2111 35.7908 37.3795 36.3042 37.0428C36.8093 36.7061 36.9776 36.1169 36.6409 35.6034C36.0517 34.5849 34.949 33.5748 32.7521 33.4064C33.1729 31.462 34.7807 30.8728 34.949 30.8728C35.5383 30.7044 35.7908 30.1152 35.6224 29.6017C35.4541 29.0125 34.8649 28.76 34.3514 28.9283C33.1645 29.265 30.9676 30.7044 30.5467 33.5748C29.3598 33.7431 28.2656 33.9957 27.1629 34.3324C28.3497 30.6118 27.3312 27.3206 23.9474 25.292C21.9188 24.1051 21.5821 23.8526 20.9929 21.3189C20.572 19.2062 20.572 16.5042 20.572 14.2146V4.0042C20.572 3.41497 20.9929 2.98568 21.4979 2.81733C22.2555 2.64898 23.0215 3.23821 23.0215 4.0042V13.8947C22.9373 16.0917 23.0215 19.3913 24.04 21.42C24.7976 23.0277 26.742 26.4031 31.3127 27.59C31.9019 27.7583 32.4154 27.4216 32.5837 26.8324C32.7521 26.2432 32.4154 25.6455 31.8262 25.5614C29.9659 25.0563 28.6107 24.122 27.6848 23.196C30.1342 22.3543 32.9288 19.3913 36.3042 21.5883C42.8951 25.8139 41.9692 32.7499 39.9406 37.8172L39.949 37.8088Z" fill="white"></path><path d="M4.03164 33.9199C5.80773 33.9199 7.24711 32.4805 7.24711 30.7044C7.24711 28.9283 5.80773 27.489 4.03164 27.489C2.25555 27.489 0.816162 28.9283 0.816162 30.7044C0.816162 32.4805 2.25555 33.9199 4.03164 33.9199ZM4.03164 29.6943C4.62086 29.6943 5.13433 30.1994 5.13433 30.797C5.13433 31.3947 4.62928 31.8997 4.03164 31.8997C3.434 31.8997 2.92895 31.3105 2.92895 30.797C2.92895 30.2836 3.434 29.6943 4.03164 29.6943Z" fill="white"></path><path d="M8.76231 10.6793C10.2017 10.6793 11.3801 9.49244 11.3801 8.06147C11.3801 6.6305 10.1933 5.44363 8.76231 5.44363C7.33133 5.44363 6.14447 6.6305 6.14447 8.06147C6.14447 9.49244 7.33133 10.6793 8.76231 10.6793ZM8.76231 7.548C9.01483 7.548 9.26735 7.80053 9.26735 8.05305C9.26735 8.30558 9.01483 8.5581 8.76231 8.5581C8.50978 8.5581 8.25726 8.30558 8.25726 8.05305C8.25726 7.80053 8.42561 7.548 8.76231 7.548Z" fill="white"></path><path d="M42.5753 11.7736C40.5467 11.7736 38.8547 13.4655 38.8547 15.4941C38.8547 17.5227 40.5467 19.2146 42.5753 19.2146C44.6039 19.2146 46.2958 17.5227 46.2958 15.4941C46.2958 13.4655 44.6039 11.7736 42.5753 11.7736ZM42.5753 17.0177C41.7335 17.0177 40.9675 16.3443 40.9675 15.4099C40.9675 14.4756 41.6409 13.8022 42.5753 13.8022C43.5096 13.8022 44.183 14.4756 44.183 15.4099C44.183 16.3443 43.4254 17.0177 42.5753 17.0177Z" fill="white"></path><path d="M46.2958 22.2617C46.9019 22.2617 47.3901 22.7499 47.3901 23.3644C47.3901 23.9789 46.9019 24.4671 46.2958 24.4671C45.6897 24.4671 45.1931 23.9789 45.1931 23.3644C45.1931 22.7499 45.6813 22.2617 46.2958 22.2617Z" fill="white"></path><path d="M46.2958 42.3794C46.9019 42.3794 47.3901 42.8676 47.3901 43.4821C47.3901 44.0966 46.9019 44.5848 46.2958 44.5848C45.6897 44.5848 45.1931 44.0966 45.1931 43.4821C45.1931 42.8676 45.6813 42.3794 46.2958 42.3794Z" fill="white"></path><path d="M39.949 47.6151C40.5551 47.6151 41.0517 48.1033 41.0517 48.7177C41.0517 49.3322 40.5635 49.8204 39.949 49.8204C39.3345 49.8204 38.8547 49.3322 38.8547 48.7177C38.8547 48.1033 39.343 47.6151 39.949 47.6151Z" fill="white"></path><path d="M17.7185 32.8257C18.3245 32.8257 18.8212 33.3139 18.8212 33.9284C18.8212 34.5429 18.3329 35.0311 17.7185 35.0311C17.104 35.0311 16.6158 34.5429 16.6158 33.9284C16.6158 33.3139 17.104 32.8257 17.7185 32.8257Z" fill="white"></path><path d="M9.2673 22.2617C9.87336 22.2617 10.37 22.7499 10.37 23.3644C10.37 23.9789 9.88178 24.4671 9.2673 24.4671C8.65283 24.4671 8.16461 23.9789 8.16461 23.3644C8.16461 22.7499 8.65283 22.2617 9.2673 22.2617Z" fill="white"></path><path d="M14.5956 15.9233C15.2017 15.9233 15.6983 16.4116 15.6983 17.026C15.6983 17.6405 15.2101 18.1287 14.5956 18.1287C13.9811 18.1287 13.4929 17.6405 13.4929 17.026C13.4929 16.4116 13.9811 15.9233 14.5956 15.9233Z" fill="white"></path><path d="M2.92898 10.6793C3.53504 10.6793 4.03167 11.1675 4.03167 11.7819C4.03167 12.3964 3.54346 12.8846 2.92898 12.8846C2.31451 12.8846 1.82629 12.3964 1.82629 11.7819C1.82629 11.1675 2.31451 10.6793 2.92898 10.6793Z" fill="white"></path><path d="M1.91885 38.1454C2.52491 38.1454 3.02154 38.6336 3.02154 39.2481C3.02154 39.8625 2.53333 40.3508 1.91885 40.3508C1.30438 40.3508 0.816162 39.8625 0.816162 39.2481C0.816162 38.6336 1.30438 38.1454 1.91885 38.1454Z" fill="white"></path><path d="M30.4037 42.3794C31.0097 42.3794 31.5063 42.8676 31.5063 43.4821C31.5063 44.0966 31.0181 44.5848 30.4037 44.5848C29.7892 44.5848 29.301 44.0966 29.301 43.4821C29.301 42.8676 29.7892 42.3794 30.4037 42.3794Z" fill="white"></path><path d="M32.5164 13.5497C32.9373 13.9706 33.6107 13.9706 34.04 13.5497L41.1443 6.44535C42.1544 5.42683 42.1544 3.74334 41.1443 2.72482C40.1342 1.70631 38.4423 1.70631 37.4238 2.72482L33.2824 6.86622L32.9457 6.52952C31.9356 5.51101 30.2437 5.51101 29.2252 6.52952C28.2067 7.54804 28.2067 9.23153 29.2252 10.25L32.5248 13.5497H32.5164ZM31.4137 7.97733L32.5164 9.08002C32.9373 9.50089 33.6107 9.50089 34.04 9.08002L38.8548 4.26522C39.0231 4.09687 39.3598 4.09687 39.6124 4.26522C39.7807 4.43357 39.7807 4.77027 39.6124 5.02279L33.274 11.3612L30.6562 8.74332C30.4878 8.57497 30.4878 8.4908 30.4878 8.40662C30.4878 7.8174 31.077 7.64905 31.4137 7.98575V7.97733Z" fill="white"></path></svg> 