<?xml version="1.0" encoding="UTF-8"?> <svg xmlns="http://www.w3.org/2000/svg" width="38" height="46" viewBox="0 0 38 46" fill="none"><path d="M36.8728 34.5759L35.425 32.1937C34.4907 30.6618 32.7904 29.7274 31.0059 29.7274H24.8022V26.8402C27.6052 23.187 27.6894 17.2359 24.8863 13.4985C23.4385 11.6298 21.5699 10.6113 19.5328 10.6113C17.4958 10.6113 15.6271 11.6298 14.1793 13.4985C11.3763 17.2359 11.4605 23.187 14.2635 26.8402V29.7274H7.72311C6.10696 29.7274 4.66757 30.4092 3.73323 31.6803L1.61203 34.3149C0.846035 35.2493 0.509336 36.352 0.509336 37.5388V44.5927C0.509336 45.1903 1.0228 45.6954 1.61203 45.6954H36.5277C37.1254 45.6954 37.6304 45.1819 37.6304 44.5927V37.2021C37.6304 36.2678 37.3779 35.3335 36.8644 34.5675L36.8728 34.5759ZM19.5413 12.7409C22.4284 12.7409 24.8948 16.0574 24.8948 20.2157C24.8948 22.421 24.2129 24.4665 23.0261 25.9059C21.0732 28.288 18.186 28.2039 16.2248 25.9059C15.0379 24.4581 14.3561 22.421 14.3561 20.2157C14.2719 16.049 16.6541 12.7409 19.5413 12.7409ZM35.5092 43.4984H2.54637V37.4631C2.54637 36.7813 2.79889 36.0994 3.22818 35.5944L5.34939 32.9597C5.94703 32.2779 6.79719 31.857 7.73153 31.857H15.2904C15.8881 31.857 16.3931 31.3436 16.3931 30.7543V28.8015C18.4301 30.0725 20.8123 29.9884 22.7651 28.8015V30.7543C22.7651 31.352 23.2786 31.857 23.8678 31.857H31.09C32.1085 31.857 33.1271 32.4547 33.7247 33.3048L35.1725 35.687C35.425 36.2005 35.5934 36.7055 35.5934 37.219V43.5068H35.5092V43.4984Z" fill="white"></path><path d="M19.5413 32.8755C18.8594 32.8755 18.4386 33.389 18.4386 33.9782C18.4386 34.5674 18.952 35.0809 19.5413 35.0809C20.1389 35.0809 20.6439 34.5674 20.6439 33.9782C20.6439 33.389 20.1305 32.8755 19.5413 32.8755Z" fill="white"></path><path d="M19.5413 36.1078C18.8594 36.1078 18.4386 36.6213 18.4386 37.2105C18.4386 37.7998 18.952 38.3132 19.5413 38.3132C20.1389 38.3132 20.6439 37.7998 20.6439 37.2105C20.6439 36.5287 20.1305 36.1078 19.5413 36.1078Z" fill="white"></path><path d="M19.5413 39.2476C18.8594 39.2476 18.4386 39.761 18.4386 40.3502C18.4386 40.9395 18.952 41.4529 19.5413 41.4529C20.1389 41.4529 20.6439 40.9395 20.6439 40.3502C20.6439 39.761 20.1305 39.2476 19.5413 39.2476Z" fill="white"></path><path d="M15.8039 7.21907C19.2046 9.50862 19.0362 9.34027 19.2046 9.42445H19.8022C20.0547 9.34027 19.8022 9.50862 23.287 7.12648C23.8005 6.78978 23.8847 6.10796 23.5396 5.67867C23.2029 5.1652 22.521 5.08103 22.0917 5.42615L20.5598 6.44466V2.0339C20.5598 1.43626 20.0463 0.931213 19.4571 0.931213C18.8679 0.931213 18.3544 1.44468 18.3544 2.0339V6.45308L16.8224 5.43456C16.3089 5.09786 15.6355 5.26621 15.3746 5.68709C15.1221 6.20055 15.2904 6.87395 15.7955 7.21907H15.8039Z" fill="white"></path><path d="M25.8291 11.2932V11.4615C25.8291 11.5176 25.8572 11.5738 25.9133 11.6299L25.9975 11.7141C26.0816 11.8824 26.25 11.9666 26.4183 12.0508C26.5025 12.0508 25.9975 11.8824 29.9873 13.6669C30.5008 13.9194 31.1742 13.6669 31.4351 13.1534C31.6877 12.64 31.4351 11.9666 30.9217 11.7056L29.2213 10.9397L32.9587 8.6501C33.4722 8.3134 33.6405 7.71576 33.2954 7.20229C32.9587 6.68882 32.3611 6.52047 31.8476 6.86559L28.0261 9.24774V7.37906C28.0261 6.78142 27.6052 6.27637 27.0076 6.27637C26.4099 6.27637 25.9049 6.69724 25.9049 7.29488C25.8207 9.16356 25.8207 9.33191 25.8207 11.1164V11.2848L25.8291 11.2932Z" fill="white"></path><path d="M32.0328 17.4969C32.3695 16.9834 32.2011 16.31 31.6961 16.0491C31.1826 15.7124 30.5092 15.8807 30.2483 16.3858C28.1271 19.7864 28.2113 19.7023 28.1271 19.8706V20.5524C28.2113 20.6366 28.1271 20.5524 30.5092 23.8689C30.8459 24.3824 31.5277 24.4665 31.957 24.1214C32.4705 23.7847 32.5547 23.1029 32.2096 22.6736L31.1069 21.1416L35.526 20.9733C36.1237 20.9733 36.5446 20.4598 36.5446 19.8706C36.5446 19.2814 36.0311 18.8521 35.4419 18.8521L31.0227 19.0204L32.0412 17.4885L32.0328 17.4969Z" fill="white"></path><path d="M6.11538 8.75106L9.85274 11.049L8.15241 11.815C7.63894 12.0675 7.38642 12.6652 7.63894 13.2628C7.89147 13.7763 8.48911 14.0288 9.08675 13.7763C12.9083 12.076 12.6558 12.1601 12.8241 11.9918L12.9083 11.9076L12.9925 11.8234L13.0766 11.7393L13.1608 11.6551V11.4026C13.1608 11.2342 13.1608 11.5709 13.0766 7.41268C13.0766 6.81504 12.5632 6.39417 11.9739 6.39417C11.3847 6.39417 10.9554 6.90763 10.9554 7.49685L11.0396 9.36554L7.30224 7.06756C6.78878 6.73086 6.11538 6.89921 5.85444 7.40426C5.51774 7.74096 5.60191 8.42278 6.10696 8.76789L6.11538 8.75106Z" fill="white"></path><path d="M3.48071 20.9816L7.89988 21.1499L6.79719 22.6819C6.46049 23.1954 6.54467 23.7846 7.04972 24.1297C7.56318 24.4664 8.15241 24.3822 8.49752 23.8772L10.7029 20.8217L10.7871 20.7375L10.8713 20.6533V20.4008V20.2324V19.9799C10.7871 19.8116 10.8713 19.9799 8.75005 16.4951C8.41335 15.9816 7.81571 15.8133 7.30224 16.1584C6.78877 16.4951 6.62043 17.0927 6.96554 17.6062L7.89988 19.2223L3.48071 19.054C2.88307 19.054 2.37802 19.4749 2.37802 20.0725C2.46219 20.4934 2.89148 21.0068 3.48071 21.0068V20.9816Z" fill="white"></path></svg> 