<?xml version="1.0" encoding="UTF-8"?> <svg xmlns="http://www.w3.org/2000/svg" width="34" height="53" viewBox="0 0 34 53" fill="none"><path d="M17.7693 6.52548H16.6666C8.42588 6.52548 1.79291 13.15 1.79291 21.3907V51.1297C1.79291 51.7273 2.30637 52.2324 2.8956 52.2324C23.4595 52.2324 22.0959 52.2324 22.18 52.2324C22.6009 52.1482 22.946 51.8115 23.0302 51.3822C23.0302 51.2139 23.0302 51.8031 23.0302 40.5068H28.3837C28.9814 40.5068 29.4864 39.9934 29.4864 39.4041V30.9109H31.6076C32.2052 30.9109 32.7103 30.3974 32.7103 29.8082V21.315C32.6261 13.0743 26.0016 6.5339 17.7609 6.5339L17.7693 6.52548ZM30.5133 28.7897H28.3921C27.7945 28.7897 27.2894 29.3032 27.2894 29.8924V38.3856H22.0201C21.4225 38.3856 20.9174 38.8991 20.9174 39.4883V49.0927L7.75248 39.5809C7.23902 39.2442 6.64979 39.3284 6.30468 39.8334C5.96798 40.3469 6.05215 40.9361 6.5572 41.2812L18.7036 49.9512H4.0067V35.086L16.0689 43.495C16.5824 43.8317 17.1716 43.6634 17.5168 43.2425C17.8535 42.7291 17.7693 42.1398 17.2642 41.7947L4.0067 32.4513V21.4076C4.0067 14.2696 9.61274 8.66352 16.7508 8.66352H17.7693C24.9073 8.66352 30.5133 14.2696 30.5133 21.4076V28.7981V28.7897Z" fill="white"></path><path d="M17.2558 12.8976C11.7339 12.8976 7.14642 17.4009 7.14642 23.0069C7.14642 28.613 11.6498 33.1163 17.2558 33.1163C22.8619 33.1163 27.3652 28.613 27.3652 23.0069C27.3652 17.4009 22.7777 12.8976 17.2558 12.8976ZM17.2558 30.911C12.8366 30.911 9.26763 27.3419 9.26763 22.9228C9.26763 18.5036 12.8366 14.9346 17.2558 14.9346C21.675 14.9346 25.244 18.5036 25.244 22.9228C25.244 27.3419 21.5908 30.911 17.2558 30.911Z" fill="white"></path><path d="M17.2558 17.1484C14.0235 17.1484 11.3972 19.7831 11.3972 23.007C11.3972 26.2309 14.0319 28.8656 17.2558 28.8656C20.4797 28.8656 23.1143 26.2309 23.1143 23.007C23.1143 19.7831 20.4797 17.1484 17.2558 17.1484ZM17.2558 26.6602C15.2188 26.6602 13.5184 24.9599 13.5184 22.9228C13.5184 20.8858 15.2188 19.1855 17.2558 19.1855C19.2928 19.1855 20.9931 20.8858 20.9931 22.9228C20.9931 24.9599 19.2928 26.6602 17.2558 26.6602Z" fill="white"></path><path d="M24.6463 6.52554C25.1598 6.77806 25.8332 6.60971 26.0941 6.10466L27.4578 3.72252C27.7103 3.20905 27.5419 2.53565 27.0369 2.27471C26.5234 2.02218 25.85 2.19053 25.5891 2.69558L24.2255 5.07773C23.9729 5.59119 24.1413 6.18042 24.6463 6.52554Z" fill="white"></path><path d="M33.5689 7.71245C33.2322 7.19898 32.6346 7.03063 32.1211 7.37575L29.739 8.73938C29.2255 9.07608 29.0572 9.67372 29.4023 10.1872C29.6548 10.7007 30.3366 10.869 30.8501 10.5239L33.2322 9.16026C33.6531 8.90773 33.8299 8.22592 33.5689 7.71245Z" fill="white"></path><path d="M8.33328 6.10466C8.66998 6.61813 9.26762 6.78648 9.78109 6.44136C10.2946 6.10466 10.4629 5.50702 10.1178 4.99355L8.75416 2.61141C8.41746 2.09794 7.81982 1.92959 7.30635 2.27471C6.79289 2.61141 6.62454 3.20905 6.96965 3.72251L8.32487 6.10466H8.33328Z" fill="white"></path><path d="M4.85684 10.1787C5.19354 9.66528 5.02519 8.99188 4.52014 8.73094L2.13799 7.36731C1.62453 7.03061 0.951127 7.19896 0.690185 7.70401C0.353486 8.21747 0.521836 8.89087 1.02688 9.15181L3.40903 10.5154C3.9225 10.8521 4.59589 10.6838 4.85684 10.1787Z" fill="white"></path><path d="M17.0874 4.57269C17.6851 4.57269 18.1901 4.05922 18.1901 3.47V1.17203C18.1901 0.574385 17.6766 0.0693359 17.0874 0.0693359C16.4982 0.0693359 16.0689 0.582802 16.0689 1.17203V3.47C16.0689 4.06764 16.5824 4.57269 17.0874 4.57269Z" fill="white"></path></svg> 