<?xml version="1.0" encoding="UTF-8"?> <svg xmlns="http://www.w3.org/2000/svg" width="38" height="53" viewBox="0 0 38 53" fill="none"><path d="M36.5936 5.2087C36.0047 5.2087 35.4915 5.71306 35.4915 6.30989V39.2281L28.6518 34.9242C28.4835 34.8401 28.3153 34.7561 28.0629 34.7561H23.8396V23.1052H24.9417V31.5449C24.9417 32.1334 25.4465 32.6461 26.0354 32.6461H30.2587C30.8476 32.6461 31.3608 32.1418 31.3608 31.5449V22.0881C31.3608 19.8941 30.0904 18.0364 28.147 17.2798V6.22583C28.147 5.63741 27.6423 5.12464 27.0449 5.12464C26.4476 5.12464 25.9513 5.629 25.9513 6.22583V16.7755H21.1391C22.157 15.6743 22.7459 14.1612 22.7459 12.5556C22.7459 9.42855 20.466 6.81426 17.4206 6.30989V2.00598C17.4206 1.41756 16.9158 0.904785 16.3185 0.904785C15.7212 0.904785 15.2164 1.40915 15.2164 2.00598V6.30989C12.2634 6.81426 9.89101 9.43695 9.89101 12.5556C9.89101 14.1612 10.4799 15.6827 11.4979 16.7755H7.77937V8.33576C7.77937 7.74733 7.27459 7.23456 6.67727 7.23456H4.56563V2.00598C4.56563 1.41756 4.06086 0.904785 3.46354 0.904785C2.86622 0.904785 2.36145 1.40915 2.36145 2.00598V7.32703C1.77254 7.32703 1.26777 7.83139 1.26777 8.42823V17.9691C1.26777 20.8356 3.6318 23.2902 6.59314 23.2902H8.70479V32.4024C8.70479 34.0079 9.46195 35.3529 10.6482 36.2019L8.70479 41.9433C8.62066 42.1114 8.62066 42.2795 8.70479 42.5317L10.564 50.7192H1.70524C1.11634 50.7192 0.603149 51.2236 0.603149 51.8204C0.603149 52.4172 1.10792 52.9216 1.70524 52.9216H34.482C35.0709 52.9216 35.584 52.4172 35.584 51.8204C35.584 51.2236 35.0793 50.7192 34.482 50.7192H17.5888V41.0942H27.8105L36.0047 46.2472C36.3412 46.4153 36.7619 46.4153 37.1068 46.2472C37.4517 46.079 37.6116 45.7428 37.6116 45.3225V6.22583C37.6116 5.63741 37.1068 5.2087 36.5936 5.2087ZM29.1566 22.0965V30.5362H27.0449V22.0965C27.0449 21.5081 26.5402 20.9953 25.9513 20.9953H23.8396V18.8854H25.9513C27.7264 18.8854 29.165 20.3228 29.165 22.0965H29.1566ZM21.8121 29.435H13.3655C12.7766 29.435 12.2634 29.9394 12.2634 30.5362C12.2634 31.133 12.7682 31.6374 13.3655 31.6374H21.8121V34.8485H13.7862C12.4317 34.8485 11.2539 33.7473 11.2539 32.3183V18.9779H21.8121V29.4434V29.435ZM12.2634 12.5556C12.2634 10.1935 14.1227 8.33576 16.4867 8.33576C18.8508 8.33576 20.71 10.1935 20.71 12.5556C20.71 14.9177 18.8508 16.7755 16.4867 16.7755C14.1227 16.7755 12.2634 14.9177 12.2634 12.5556ZM7.0222 20.9953C5.24708 20.9953 3.80847 19.5579 3.80847 17.7842V9.34449H5.92011V17.7842C5.92011 18.3726 6.42489 18.8854 7.0222 18.8854H9.13385V20.9953H7.0222ZM13.1047 50.5427L11.2455 42.187L13.0206 36.866H15.3846V50.6267H13.1047V50.5427ZM35.4915 43.3639L28.6518 39.06C28.4835 38.9759 28.3153 38.8919 28.0629 38.8919H17.5888V36.7819H27.8105L35.4999 41.5902V43.3639H35.4915Z" fill="white"></path><path d="M15.7212 20.2388C15.3005 20.6591 15.3005 21.3399 15.7212 21.7603C16.1418 22.1806 16.9915 21.9284 17.2439 21.7603C17.6646 21.3399 17.6646 20.6591 17.2439 20.2388C16.8233 19.8184 16.1502 19.8184 15.7212 20.2388Z" fill="white"></path><path d="M15.7212 23.4415C15.3005 23.8618 15.3005 24.5427 15.7212 24.963C16.1418 25.3833 16.9915 25.1311 17.2439 24.963C17.6646 24.5427 17.6646 23.8618 17.2439 23.4415C16.8233 23.0212 16.1502 23.0212 15.7212 23.4415Z" fill="white"></path></svg> 