<?xml version="1.0" encoding="UTF-8"?> <svg xmlns="http://www.w3.org/2000/svg" width="51" height="51" viewBox="0 0 51 51" fill="none"><path d="M39.2908 30.8402L34.9558 32.7931C31.9844 34.1483 28.5838 34.1483 25.5282 32.7931C25.0148 32.6247 22.8094 31.2611 19.4087 31.2611C14.3077 31.2611 9.63604 34.3166 7.59901 38.9968L4.71182 45.5371C4.4593 46.0506 4.71182 46.724 5.22529 46.8924L13.6343 50.6297C14.1478 50.8822 14.8212 50.6297 15.0822 50.1162L17.5485 44.5102C18.1461 43.2392 19.5855 42.6415 20.865 43.2392C24.434 44.8553 28.508 44.7711 31.9929 43.2392L42.6157 38.3991C43.5501 37.9782 44.2319 37.2123 44.6527 36.3621C46.3531 32.7931 42.7841 29.2241 39.2992 30.8402H39.2908ZM13.5502 48.256L7.09397 45.3688L7.94413 43.4159L14.4003 46.3031L13.5502 48.256ZM41.8413 36.4463L31.1343 41.2863C28.1629 42.6415 24.7622 42.6415 21.7067 41.2863C19.3246 40.2678 16.6057 41.2863 15.5872 43.6685L15.2505 44.4344L8.7943 41.5473L9.47611 39.9311C11.8583 34.4934 18.2303 31.9429 23.7522 34.4092C24.2656 34.5776 26.5552 35.9412 30.1242 35.9412C32.077 35.9412 33.9457 35.5203 35.7302 34.7544L40.1494 32.8015C41.1679 32.3806 42.1864 32.8015 42.6999 33.5675C43.3817 34.586 42.8682 35.9496 41.8497 36.4547L41.8413 36.4463Z" fill="white"></path><path d="M29.0972 30.1584C29.5181 30.5793 30.1999 30.5793 30.6292 30.1584C37.5147 23.273 44.7285 20.6467 44.7285 13.1636C44.7285 8.74439 41.1595 5.25955 36.7403 5.25955C33.3397 5.25955 31.3868 6.79153 29.8548 9.24944C28.3228 6.78312 26.37 5.25955 22.9693 5.25955C18.5501 5.25955 15.0653 8.82856 15.0653 13.1636C14.9811 20.6383 22.1192 23.1888 29.0804 30.1584H29.0972ZM22.8936 7.305C25.6124 7.305 27.1444 8.49186 28.8447 11.8925C29.2656 12.6585 30.3767 12.6585 30.7134 11.8925C32.4137 8.49186 33.9457 7.305 36.6646 7.305C39.8969 7.305 42.5231 9.93967 42.5231 13.0794C42.5231 19.1147 36.4036 21.5726 29.8632 27.8605C23.2387 21.5726 17.1192 19.1063 17.1192 13.1636C17.1192 9.93125 19.7538 7.305 22.8936 7.305Z" fill="white"></path><path d="M46.8497 41.0338C47.4558 41.0338 47.9524 41.5305 47.9524 42.1365C47.9524 42.7426 47.4558 43.2392 46.8497 43.2392C46.2436 43.2392 45.747 42.7426 45.747 42.1365C45.747 41.5305 46.2436 41.0338 46.8497 41.0338Z" fill="white"></path><path d="M47.9608 17.7595C48.5698 17.7595 49.0635 17.2658 49.0635 16.6568C49.0635 16.0478 48.5698 15.5541 47.9608 15.5541C47.3518 15.5541 46.8581 16.0478 46.8581 16.6568C46.8581 17.2658 47.3518 17.7595 47.9608 17.7595Z" fill="white"></path><path d="M38.3564 27.2714C38.9709 27.2714 39.4591 27.768 39.4591 28.3741C39.4591 28.9801 38.9625 29.4768 38.3564 29.4768C37.7504 29.4768 37.2537 28.9801 37.2537 28.3741C37.2537 27.768 37.7504 27.2714 38.3564 27.2714Z" fill="white"></path><path d="M18.2218 25.1502C18.8279 25.1502 19.3245 25.6468 19.3245 26.2529C19.3245 26.8589 18.8279 27.3555 18.2218 27.3555C17.6158 27.3555 17.1191 26.8589 17.1191 26.2529C17.1191 25.6468 17.6158 25.1502 18.2218 25.1502Z" fill="white"></path><path d="M6.49631 8.15512C7.10236 8.15512 7.59899 8.65175 7.59899 9.25781C7.59899 9.86387 7.10236 10.3605 6.49631 10.3605C5.89025 10.3605 5.39362 9.86387 5.39362 9.25781C5.39362 8.65175 5.89025 8.15512 6.49631 8.15512Z" fill="white"></path><path d="M30.9659 0.680496C31.572 0.680496 32.0686 1.17713 32.0686 1.78319C32.0686 2.38924 31.572 2.88587 30.9659 2.88587C30.3598 2.88587 29.8632 2.38924 29.8632 1.78319C29.8632 1.17713 30.3598 0.680496 30.9659 0.680496Z" fill="white"></path><path d="M14.9895 3.91289C15.5956 3.91289 16.0922 4.40952 16.0922 5.01558C16.0922 5.62164 15.5956 6.11827 14.9895 6.11827C14.3835 6.11827 13.8868 5.62164 13.8868 5.01558C13.8868 4.40952 14.3835 3.91289 14.9895 3.91289Z" fill="white"></path><path d="M45.8311 3.91289C46.4372 3.91289 46.9338 4.40952 46.9338 5.01558C46.9338 5.62164 46.4372 6.11827 45.8311 6.11827C45.2251 6.11827 44.7285 5.62164 44.7285 5.01558C44.7285 4.40952 45.2251 3.91289 45.8311 3.91289Z" fill="white"></path><path d="M38.3564 16.6569C38.9709 16.6569 39.4591 17.1535 39.4591 17.7596C39.4591 18.3656 38.9625 18.8622 38.3564 18.8622C37.7504 18.8622 37.2537 18.3656 37.2537 17.7596C37.2537 17.1535 37.7504 16.6569 38.3564 16.6569Z" fill="white"></path><path d="M29.8632 46.3874C30.4693 46.3874 30.9659 46.8841 30.9659 47.4901C30.9659 48.0962 30.4693 48.5928 29.8632 48.5928C29.2572 48.5928 28.7606 48.0962 28.7606 47.4901C28.7606 46.8841 29.2572 46.3874 29.8632 46.3874Z" fill="white"></path><path d="M8.61752 29.401C9.232 29.401 9.72021 29.8977 9.72021 30.5037C9.72021 31.1098 9.22358 31.6064 8.61752 31.6064C8.01146 31.6064 7.51483 31.1098 7.51483 30.5037C7.51483 29.8977 8.01146 29.401 8.61752 29.401Z" fill="white"></path><path d="M2.24551 40.0154C2.85157 40.0154 3.3482 40.512 3.3482 41.118C3.3482 41.7241 2.85157 42.2207 2.24551 42.2207C1.63945 42.2207 1.14282 41.7241 1.14282 41.118C1.14282 40.512 1.63945 40.0154 2.24551 40.0154Z" fill="white"></path><path d="M39.4591 42.145C37.6746 42.145 36.2268 43.5928 36.2268 45.3773C36.2268 47.1618 37.6746 48.6096 39.4591 48.6096C41.2436 48.6096 42.6914 47.1618 42.6914 45.3773C42.6914 43.5928 41.1594 42.145 39.4591 42.145ZM39.4591 46.3874C38.8615 46.3874 38.3564 45.8739 38.3564 45.2847C38.3564 44.6955 38.8699 44.182 39.4591 44.182C40.0483 44.182 40.5618 44.6955 40.5618 45.2847C40.4776 45.8824 39.9642 46.3874 39.4591 46.3874Z" fill="white"></path><path d="M5.47778 33.1382C5.47778 31.6904 4.29092 30.5036 2.84311 30.5036C1.39531 30.5036 0.124268 31.6904 0.124268 33.1382C0.124268 34.586 1.31113 35.7729 2.75894 35.7729C4.20674 35.7729 5.47778 34.586 5.47778 33.1382ZM2.24547 33.1382C2.24547 32.8857 2.498 32.6248 2.75894 32.6248C3.01988 32.6248 3.2724 32.8773 3.2724 33.1382C3.2724 33.3992 3.10405 33.6517 2.75894 33.6517C2.41382 33.6517 2.24547 33.3992 2.24547 33.1382Z" fill="white"></path><path d="M22.4727 19.8807H26.7235C27.237 19.8807 27.6579 19.544 27.742 19.1147L27.9104 18.4329L29.9474 24.5524C30.1158 24.9732 30.545 25.3184 31.0501 25.3184C31.5551 25.3184 31.9003 24.8975 31.9844 24.4682L32.9188 18.9463H35.2167C35.8144 18.9463 36.3194 18.4329 36.3194 17.8436C36.3194 17.2544 35.806 16.741 35.2167 16.741H31.9844C31.471 16.741 31.0501 17.0777 30.9659 17.5911L30.6292 19.7123L28.7605 14.1905C28.5922 13.7696 28.1629 13.4245 27.742 13.4245C27.2286 13.4245 26.8919 13.7612 26.7235 14.1905L25.8733 17.6753H22.4727C21.875 17.6753 21.37 18.1888 21.37 18.778C21.37 19.3672 21.8835 19.8807 22.4727 19.8807Z" fill="white"></path><path d="M6.49629 20.8993C8.28079 20.8993 9.7286 19.4515 9.7286 17.667C9.7286 15.8825 8.28079 14.4347 6.49629 14.4347C4.71178 14.4347 3.26398 15.8825 3.26398 17.667C3.26398 19.4515 4.71178 20.8993 6.49629 20.8993ZM6.49629 16.6569C7.09393 16.6569 7.59898 17.1704 7.59898 17.7596C7.59898 18.3489 7.08551 18.8623 6.49629 18.8623C5.90706 18.8623 5.3936 18.3489 5.3936 17.7596C5.3936 17.1704 5.90706 16.6569 6.49629 16.6569Z" fill="white"></path><path d="M46.3447 20.8993C44.3076 20.8993 42.6073 22.5996 42.6073 24.6367C42.6073 26.6737 44.3076 28.374 46.3447 28.374C48.3817 28.374 50.082 26.6737 50.082 24.6367C50.082 22.5996 48.3817 20.8993 46.3447 20.8993ZM46.3447 26.2528C45.4945 26.2528 44.7285 25.571 44.7285 24.6367C44.7285 23.7023 45.4103 23.0205 46.3447 23.0205C47.279 23.0205 47.9608 23.7023 47.9608 24.6367C47.9608 25.571 47.1948 26.2528 46.3447 26.2528Z" fill="white"></path></svg> 