<?xml version="1.0" encoding="UTF-8"?> <svg xmlns="http://www.w3.org/2000/svg" width="48" height="47" viewBox="0 0 48 47" fill="none"><path d="M42.9797 24.5441C42.5588 23.273 40.8585 20.1249 38.813 17.3219C36.01 13.5003 33.4595 11.5475 31.2541 11.5475C30.3198 11.5475 28.872 11.8842 27.6851 13.7529C27.0033 14.7714 26.5824 16.0508 26.2373 17.406L25.1346 16.135V1.69061C25.1346 1.09297 24.6212 0.587921 24.032 0.587921C23.4427 0.587921 22.9293 1.10139 22.9293 1.69061V16.135L21.7424 17.406C21.4057 16.0424 20.9764 14.7714 20.2946 13.7529C19.1077 11.9683 17.7441 11.5475 16.7256 11.5475C14.5202 11.5475 11.9697 13.5003 9.16669 17.3219C7.12966 20.0407 5.42933 23.273 5.00004 24.5441C4.31822 26.4127 3.98152 27.8605 3.89735 29.2158C3.81317 31.0003 3.81317 33.0373 3.81317 34.6535C3.81317 36.438 3.81317 38.3066 4.41081 39.7544C5.09263 41.7073 6.61619 42.81 8.82999 42.7258C12.9966 42.6416 17.7525 39.4093 20.0421 36.438C22.6767 33.0373 22.5926 31.0844 22.5926 27.2629C22.5084 25.31 22.5084 22.6754 22.2559 20.1249L24.0404 18.172L25.8249 20.1249C25.5724 22.6754 25.5724 25.31 25.4882 27.2629C25.4882 27.3471 25.4882 27.0946 25.4882 27.9447C25.4882 31.2612 25.4882 33.2982 28.0387 36.438C30.505 39.5777 35.4292 42.7258 39.4275 42.7258C41.5487 42.7258 42.9965 41.7073 43.6783 39.7544C44.1918 38.2225 44.1918 36.438 44.276 34.6535C44.276 33.0373 44.276 31.0003 44.1918 29.2158C44.1076 27.9447 43.6783 26.4127 43.0049 24.5441H42.9797ZM20.4629 27.3471C20.4629 30.9161 20.6313 32.3639 18.4259 35.1669C16.3889 37.8016 12.2222 40.5204 8.82157 40.6046C6.43943 40.6888 6.10273 38.9043 6.01855 34.5693C6.01855 32.9531 6.01855 31.0003 6.10273 29.2999C6.1869 28.2814 6.5236 26.9178 7.12124 25.3101C7.97141 22.9279 13.4933 13.7529 16.8939 13.7529C17.1465 13.7529 17.9124 13.7529 18.6784 14.9397C19.4444 16.0424 19.8653 17.6586 20.1262 19.4431L14.3519 25.8993L12.9882 25.2175C12.4748 24.9649 11.8014 25.1333 11.5404 25.7309C11.2879 26.2444 11.4562 26.9178 12.0539 27.1787L13.5859 27.9447V29.3925C13.5859 29.9902 14.0993 30.4952 14.6886 30.4952C15.2778 30.4952 15.7912 29.9818 15.7912 29.3925V27.6922L20.5471 22.4229C20.3788 24.1232 20.3788 25.9077 20.4629 27.3471ZM42.0369 34.6535C42.0369 38.9043 41.6161 40.6888 39.4023 40.6888C36.0016 40.6888 31.7592 37.8858 29.6296 35.2511C27.4242 32.4481 27.5925 31.0003 27.5925 27.4313C27.6767 25.9834 27.6767 24.1989 27.7609 22.4229L32.5168 27.6922V29.3925C32.5168 29.9902 33.0302 30.4952 33.6195 30.4952C34.2087 30.4952 34.7221 29.9818 34.7221 29.3925V27.9447L36.2541 27.1787C36.7676 26.9262 37.0201 26.2444 36.7676 25.7309C36.5151 25.2175 35.8333 24.9649 35.3198 25.2175L33.9562 25.8993L28.1818 19.4431C28.4343 17.6586 28.8636 16.1266 29.6296 14.9397C30.3956 13.7529 31.1616 13.7529 31.4141 13.7529C34.8989 13.7529 40.3366 22.9279 41.1868 25.3101C41.7844 26.9262 42.1211 28.2814 42.2053 29.2999C42.1211 31.0003 42.1211 33.0373 42.0369 34.6535Z" fill="white"></path><path d="M38.8972 35.6804C39.4949 35.6804 39.9999 35.1669 39.9999 34.5777V28.2057C39.9999 27.608 39.4864 27.103 38.8972 27.103C38.308 27.103 37.7945 27.6164 37.7945 28.2057V34.5777C37.8787 35.1753 38.308 35.6804 38.8972 35.6804Z" fill="white"></path><path d="M9.15827 31.4295C8.56063 31.4295 8.05558 31.9429 8.05558 32.5322V36.783C8.05558 37.3806 8.56905 37.8857 9.15827 37.8857C9.74749 37.8857 10.261 37.3722 10.261 36.783V32.5322C10.261 31.9345 9.74749 31.4295 9.15827 31.4295Z" fill="white"></path><path d="M38.8972 36.6988C39.5033 36.6988 39.9999 37.1955 39.9999 37.8015C39.9999 38.4076 39.5033 38.9042 38.8972 38.9042C38.2912 38.9042 37.7945 38.4076 37.7945 37.8015C37.7945 37.1955 38.2912 36.6988 38.8972 36.6988Z" fill="white"></path><path d="M31.5067 42.0524C32.1127 42.0524 32.6094 42.5491 32.6094 43.1551C32.6094 43.7612 32.1127 44.2578 31.5067 44.2578C30.9006 44.2578 30.404 43.7612 30.404 43.1551C30.404 42.5491 30.9006 42.0524 31.5067 42.0524Z" fill="white"></path><path d="M3.89735 43.0709C4.50341 43.0709 5.00004 43.5675 5.00004 44.1736C5.00004 44.7797 4.50341 45.2763 3.89735 45.2763C3.29129 45.2763 2.79466 44.7797 2.79466 44.1736C2.79466 43.5675 3.29129 43.0709 3.89735 43.0709Z" fill="white"></path><path d="M1.76773 18.6855C2.37378 18.6855 2.87042 19.1821 2.87042 19.7882C2.87042 20.3942 2.37378 20.8909 1.76773 20.8909C1.16167 20.8909 0.665037 20.3942 0.665037 19.7882C0.665037 19.1821 1.16167 18.6855 1.76773 18.6855Z" fill="white"></path><path d="M11.2879 2.70914C11.894 2.70914 12.3906 3.20577 12.3906 3.81183C12.3906 4.41788 11.894 4.91452 11.2879 4.91452C10.6818 4.91452 10.1852 4.41788 10.1852 3.81183C10.1852 3.20577 10.6818 2.70914 11.2879 2.70914Z" fill="white"></path><path d="M18.7626 4.83879C19.3687 4.83879 19.8653 5.33542 19.8653 5.94148C19.8653 6.54754 19.3687 7.04417 18.7626 7.04417C18.1566 7.04417 17.6599 6.54754 17.6599 5.94148C17.6599 5.33542 18.1566 4.83879 18.7626 4.83879Z" fill="white"></path><path d="M30.404 1.69066C31.01 1.69066 31.5067 2.18729 31.5067 2.79335C31.5067 3.39941 31.01 3.89604 30.404 3.89604C29.7979 3.89604 29.3013 3.39941 29.3013 2.79335C29.3013 2.18729 29.7979 1.69066 30.404 1.69066Z" fill="white"></path><path d="M44.2507 13.3319C44.8652 13.3319 45.3534 13.8285 45.3534 14.4346C45.3534 15.0406 44.8568 15.5373 44.2507 15.5373C43.6447 15.5373 43.148 15.0406 43.148 14.4346C43.148 13.8285 43.6447 13.3319 44.2507 13.3319Z" fill="white"></path><path d="M46.3719 42.0524C46.978 42.0524 47.4746 42.5491 47.4746 43.1551C47.4746 43.7612 46.978 44.2578 46.3719 44.2578C45.7659 44.2578 45.2692 43.7612 45.2692 43.1551C45.2692 42.5491 45.7659 42.0524 46.3719 42.0524Z" fill="white"></path><path d="M24.032 36.6988C24.638 36.6988 25.1346 37.1955 25.1346 37.8015C25.1346 38.4076 24.638 38.9042 24.032 38.9042C23.4259 38.9042 22.9293 38.4076 22.9293 37.8015C22.9293 37.1955 23.4259 36.6988 24.032 36.6988Z" fill="white"></path><path d="M9.15827 28.1973C9.76433 28.1973 10.261 28.6939 10.261 29.3C10.261 29.906 9.76433 30.4027 9.15827 30.4027C8.55221 30.4027 8.05558 29.906 8.05558 29.3C8.05558 28.6939 8.55221 28.1973 9.15827 28.1973Z" fill="white"></path><path d="M6.01855 13.4162C7.80306 13.4162 9.25086 11.9684 9.25086 10.1839C9.25086 8.39939 7.80306 6.95158 6.01855 6.95158C4.23405 6.95158 2.78624 8.39939 2.78624 10.1839C2.78624 11.9684 4.23405 13.4162 6.01855 13.4162ZM6.01855 9.16538C6.61619 9.16538 7.12124 9.67885 7.12124 10.2681C7.12124 10.8573 6.60778 11.3708 6.01855 11.3708C5.42933 11.3708 4.91586 10.8573 4.91586 10.2681C4.91586 9.67885 5.42933 9.16538 6.01855 9.16538Z" fill="white"></path><path d="M21.3973 41.0255C19.9495 41.0255 18.7626 42.2124 18.7626 43.6602C18.7626 45.108 19.9495 46.2949 21.3973 46.2949C22.8451 46.2949 24.032 45.108 24.032 43.6602C24.032 42.2124 22.8451 41.0255 21.3973 41.0255ZM21.3973 44.1736C21.1448 44.1736 20.8838 43.9211 20.8838 43.6602C20.8838 43.3992 21.1363 43.1467 21.3973 43.1467C21.6582 43.1467 21.9107 43.3992 21.9107 43.6602C21.9107 43.9211 21.6582 44.1736 21.3973 44.1736Z" fill="white"></path><path d="M42.6346 9.16538C44.6716 9.16538 46.3719 7.46505 46.3719 5.42802C46.3719 3.39099 44.6716 1.69066 42.6346 1.69066C40.5975 1.69066 38.8972 3.39099 38.8972 5.42802C38.8972 7.46505 40.5975 9.16538 42.6346 9.16538ZM42.6346 3.82028C43.4847 3.82028 44.2507 4.5021 44.2507 5.43644C44.2507 6.37078 43.5689 7.05259 42.6346 7.05259C41.7002 7.05259 41.0184 6.2866 41.0184 5.43644C41.0184 4.58627 41.7002 3.82028 42.6346 3.82028Z" fill="white"></path></svg> 