<?xml version="1.0" encoding="UTF-8"?> <svg xmlns="http://www.w3.org/2000/svg" width="48" height="48" viewBox="0 0 48 48" fill="none"><path d="M47.8282 29.652C47.8282 30.3086 47.2979 30.8389 46.6497 30.8389C46.0016 30.8389 45.4629 30.3086 45.4629 29.652C45.4629 28.9534 45.9511 28.4652 46.6497 28.4652C47.2979 28.4652 47.8282 28.9955 47.8282 29.652Z" fill="white"></path><path d="M35.6144 3.68406C35.6144 4.3322 35.0757 4.87092 34.4276 4.87092C33.7794 4.87092 33.2407 4.3322 33.2407 3.68406C33.2407 3.03591 33.771 2.49719 34.4276 2.49719C35.0841 2.49719 35.6144 3.02749 35.6144 3.68406Z" fill="white"></path><path d="M33.4932 19.046C33.4932 19.6941 32.9545 20.2244 32.3063 20.2244C31.6582 20.2244 31.1195 19.6941 31.1195 19.046C31.1195 18.3978 31.6498 17.8591 32.3063 17.8591C32.9629 17.8591 33.4932 18.3894 33.4932 19.046Z" fill="white"></path><path d="M21.2711 23.8776C21.2711 24.5341 20.7408 25.0644 20.0842 25.0644C19.4276 25.0644 18.8973 24.5341 18.8973 23.8776C18.8973 23.221 19.4276 22.6991 20.0842 22.6991C20.7408 22.6991 21.2711 23.2294 21.2711 23.8776Z" fill="white"></path><path d="M12.2728 16.4112C12.2728 17.0677 11.7425 17.598 11.0859 17.598C10.4293 17.598 9.89904 17.0677 9.89904 16.4112C9.89904 15.7546 10.4378 15.2243 11.0859 15.2243C11.734 15.2243 12.2728 15.763 12.2728 16.4112Z" fill="white"></path><path d="M46.7255 43.768V36.6048C46.7507 36.5037 46.7507 36.3943 46.7255 36.2933V35.0812C46.7255 33.2293 45.2777 31.7731 43.4174 31.7731H41.4646C41.0269 29.0374 38.6447 26.9415 35.7828 26.9415H18.8131C18.3249 26.9415 17.8788 27.3792 17.8788 27.8674V31.689H13.9563L13.9731 29.231C13.9731 26.4701 11.7256 24.2227 8.96469 24.2227H7.60106V20.4011C7.60106 19.4247 7.22227 18.4819 6.52362 17.7917C5.7408 17.1015 4.8738 16.7563 3.95629 16.7563C1.95293 16.7563 0.311523 18.3893 0.311523 20.4011V43.827C0.311523 44.3152 0.75765 44.7529 1.24586 44.7529H4.63811V46.0323H3.36707C2.87885 46.0323 2.43273 46.4785 2.43273 46.9667C2.43273 47.4549 2.87885 47.8926 3.36707 47.8926H43.1649C43.6531 47.8926 44.0992 47.4549 44.0992 46.9667C44.0992 46.4785 43.6531 46.0323 43.1649 46.0323H42.5673V44.7529H45.7996C46.1279 44.7529 46.4225 44.6098 46.5992 44.3657C46.7255 44.1889 46.776 43.9785 46.7255 43.768ZM19.7391 28.8018H35.6986C37.5168 28.8018 39.0235 29.9886 39.436 31.689H19.7391V28.8018ZM7.51688 26.1671H8.96469C10.6566 26.1671 12.0287 27.5391 12.0287 29.231V31.689H7.51688V26.1671ZM2.34014 20.4011C2.34014 19.4499 3.08929 18.7008 4.04047 18.7008C4.56235 18.7008 4.94955 18.8523 5.24416 19.1385C5.58086 19.5594 5.7408 19.9718 5.7408 20.4011V24.7866C5.69029 24.9045 5.65662 25.0307 5.65662 25.157V31.689H2.34014V20.4011ZM10.4125 46.0323H6.49837V44.7529H10.4125V46.0323ZM34.8568 46.0323H12.2728V44.7529H34.8568V46.0323ZM40.6228 46.0323H36.7171V44.7529H40.6228V46.0323ZM44.8652 42.8926H42.0117C41.8939 42.8421 41.7676 42.8084 41.6413 42.8084H35.7828C35.6565 42.8084 35.5302 42.8421 35.4124 42.8926H11.7088C11.5909 42.8421 11.4647 42.8084 11.3384 42.8084H2.17179V39.9212H44.8652V42.8926ZM44.8652 38.061H2.17179V37.2866H44.8652V38.061ZM44.8652 35.4263H2.17179V33.5492H40.0841C40.2019 33.5997 40.3282 33.6334 40.4545 33.6334H43.4174C44.2087 33.6334 44.8652 34.2984 44.8652 35.0812V35.4263Z" fill="white"></path><path d="M46.3888 6.2345H17.7104C17.2222 6.2345 16.7761 6.67221 16.7761 7.16042V15.6452C16.7761 16.1334 17.2222 16.5796 17.7104 16.5796H46.3888C46.877 16.5796 47.3231 16.1334 47.3231 15.6452V7.16042C47.3231 6.67221 46.877 6.2345 46.3888 6.2345ZM18.6364 8.09476H31.1195V14.7193H18.6364V8.09476ZM45.3787 14.7193H32.9798V8.09476H45.3787V14.7193Z" fill="white"></path><path d="M43.6784 21.083C41.9949 21.083 40.6228 22.4551 40.6228 24.1386C40.6228 25.8221 41.9949 27.1857 43.6784 27.1857C45.3619 27.1857 46.7255 25.8221 46.7255 24.1386C46.7255 22.4551 45.3619 21.083 43.6784 21.083ZM43.6784 25.3254C42.9376 25.3254 42.4831 24.711 42.4831 24.1386C42.4831 23.3978 43.106 22.9433 43.6784 22.9433C44.4107 22.9433 44.8652 23.5662 44.8652 24.1386C44.8652 24.8709 44.2508 25.3254 43.6784 25.3254Z" fill="white"></path><path d="M11.1701 1.56281C11.1701 2.21096 10.6398 2.74967 9.98322 2.74967C9.32666 2.74967 8.79636 2.21096 8.79636 1.56281C8.79636 0.914665 9.32666 0.375946 9.98322 0.375946C10.6398 0.375946 11.1701 0.906247 11.1701 1.56281Z" fill="white"></path><path d="M5.48829 4.02921C3.2324 4.02921 1.33006 5.93156 1.33006 8.17902C1.33006 10.4265 3.2324 12.3373 5.48829 12.3373C7.74417 12.3373 9.6381 10.4349 9.6381 8.17902C9.6381 5.92314 7.73575 4.02921 5.48829 4.02921ZM5.48829 10.3928C4.26775 10.3928 3.27449 9.39956 3.27449 8.17902C3.27449 6.95849 4.26775 5.97364 5.48829 5.97364C6.70882 5.97364 7.69367 6.95849 7.69367 8.17902C7.69367 9.39956 6.70882 10.3928 5.48829 10.3928Z" fill="white"></path></svg> 