<?xml version="1.0" encoding="UTF-8"?> <svg xmlns="http://www.w3.org/2000/svg" width="46" height="46" viewBox="0 0 46 46" fill="none"><path d="M21.912 31.8694C22.3329 32.2903 23.0147 32.2903 23.444 31.8694C27.2655 28.0479 31.348 25.7499 31.348 21.4149C31.348 18.7803 29.1426 16.5749 26.508 16.5749C24.6393 16.5749 23.5366 17.3409 22.6864 18.4436C21.8363 17.3409 20.7336 16.5749 18.8649 16.5749C16.2302 16.5749 14.0248 18.7803 14.0248 21.4149C14.109 25.6658 18.0989 28.0395 21.9289 31.8694H21.912ZM18.9406 18.6119C20.2117 18.6119 20.8935 19.1254 21.7437 20.9099C22.1645 21.6759 23.2756 21.6759 23.6123 20.9099C24.4625 19.2096 25.1443 18.6119 26.4154 18.6119C27.9473 18.6119 29.1342 19.7988 29.1342 21.3308C29.1342 24.3021 26.0787 26.255 22.5938 29.5715C19.109 26.255 16.0535 24.3021 16.0535 21.3308C16.2218 19.7988 17.4087 18.6119 18.9406 18.6119Z" fill="white"></path><path d="M44.1762 24.4704C43.3261 22.3492 40.6914 21.7516 39.0752 23.1994L35.6746 26.1707C37.5433 17.8459 31.1712 10.026 22.678 10.026C20.0433 10.026 17.6696 10.792 15.6242 12.063C15.7083 11.6422 15.7083 11.1287 15.7083 10.6994C15.7083 9.93342 16.306 9.25161 16.9794 9.25161H27.2571C27.8548 9.25161 28.3598 8.73814 28.3598 8.14892V1.78531C28.3598 1.18767 27.8463 0.682617 27.2571 0.682617H16.3817C11.3818 0.682617 7.2151 4.84927 7.2151 9.94184V10.6237C7.2151 12.829 6.28076 14.8745 4.6646 16.3139L2.19828 18.5192C1.17977 19.3694 0.84307 20.8172 1.34812 22.0041C2.19828 24.1253 4.83295 24.7229 6.44911 23.2751L9.7656 20.3038C9.51307 21.2381 9.4289 22.2566 9.4289 23.191C9.4289 23.7886 9.94236 24.2936 10.5316 24.2936C11.1208 24.2936 11.6343 23.7802 11.6343 23.191C11.6343 17.0714 16.6511 12.063 22.7622 12.063C28.8733 12.063 33.8901 17.0799 33.8901 23.191C33.8901 29.302 28.8733 34.3189 22.7622 34.3189C22.1645 34.3189 21.6595 34.8323 21.6595 35.4215C21.6595 36.0108 22.173 36.5242 22.7622 36.5242C25.3968 36.5242 27.8632 35.7582 29.9002 34.4872C29.816 34.9081 29.816 35.3374 29.816 35.8508C29.816 36.6168 29.2184 37.2986 28.3682 37.2986H17.8295C17.2319 37.2986 16.7268 37.8121 16.7268 38.4013V44.7734C16.7268 45.371 17.2403 45.876 17.8295 45.876H28.9574C34.0584 45.876 38.2167 41.7094 38.2167 36.6168V35.935C38.2167 33.7296 39.151 31.6842 40.7672 30.2448L43.2335 28.0394C44.252 27.1051 44.5971 25.7414 44.1678 24.4704H44.1762ZM26.247 7.223H24.1258V2.98059H26.247V7.23141V7.223ZM5.00972 21.8357C4.49626 22.2566 3.65451 22.1724 3.30939 21.4149C3.22522 21.2465 3.05687 20.733 3.56192 20.228L6.02824 18.0226C8.06527 16.1539 9.26055 13.5193 9.26055 10.7162V10.1186C9.26055 6.2129 12.4003 2.98059 16.3144 2.98059H21.9204V7.23141H16.9962C15.1275 7.23141 13.5955 8.84757 13.5955 10.8004C13.5955 13.0058 12.6612 15.0512 11.0451 16.4906L5.00972 21.8442V21.8357ZM18.8565 39.4283H20.9777V43.6791H18.8565V39.4283ZM41.8783 26.4317L39.4119 28.6371C37.3749 30.5057 36.1796 33.1404 36.1796 35.9434V36.6252C36.1796 40.531 32.9557 43.7633 29.0416 43.7633H23.0989V39.5124H28.284C30.2369 39.5124 31.8531 37.8963 31.8531 35.9434C31.8531 33.738 32.7874 31.6926 34.4035 30.2532L40.4389 24.8997C40.9523 24.4788 41.8867 24.563 42.1392 25.3206C42.2234 25.4047 42.3917 26.0024 41.8867 26.4233L41.8783 26.4317Z" fill="white"></path><path d="M44.3446 38.7464C44.9506 38.7464 45.4473 39.243 45.4473 39.8491C45.4473 40.4551 44.9506 40.9518 44.3446 40.9518C43.7385 40.9518 43.2419 40.4551 43.2419 39.8491C43.2419 39.243 43.7385 38.7464 44.3446 38.7464Z" fill="white"></path><path d="M39.0752 42.9973C39.6813 42.9973 40.1779 43.4939 40.1779 44.0999C40.1779 44.706 39.6813 45.2026 39.0752 45.2026C38.4692 45.2026 37.9725 44.706 37.9725 44.0999C37.9725 43.4939 38.4692 42.9973 39.0752 42.9973Z" fill="white"></path><path d="M42.2234 15.3795C42.8294 15.3795 43.326 15.8761 43.326 16.4821C43.326 17.0882 42.8294 17.5848 42.2234 17.5848C41.6173 17.5848 41.1207 17.0882 41.1207 16.4821C41.1207 15.8761 41.6173 15.3795 42.2234 15.3795Z" fill="white"></path><path d="M33.7217 0.514282C34.3278 0.514282 34.8244 1.01091 34.8244 1.61697C34.8244 2.22303 34.3278 2.71966 33.7217 2.71966C33.1157 2.71966 32.619 2.22303 32.619 1.61697C32.619 1.01091 33.1157 0.514282 33.7217 0.514282Z" fill="white"></path><path d="M6.11239 27.1052C6.71845 27.1052 7.21508 27.6018 7.21508 28.2079C7.21508 28.8139 6.71845 29.3105 6.11239 29.3105C5.50634 29.3105 5.0097 28.8139 5.0097 28.2079C5.0097 27.6018 5.50634 27.1052 6.11239 27.1052Z" fill="white"></path><path d="M11.4659 44.1841C12.0749 44.1841 12.5686 43.6904 12.5686 43.0815C12.5686 42.4725 12.0749 41.9788 11.4659 41.9788C10.8569 41.9788 10.3632 42.4725 10.3632 43.0815C10.3632 43.6904 10.8569 44.1841 11.4659 44.1841Z" fill="white"></path><path d="M2.96426 10.1185C3.57032 10.1185 4.06695 10.6152 4.06695 11.2212C4.06695 11.8273 3.57032 12.3239 2.96426 12.3239C2.3582 12.3239 1.86157 11.8273 1.86157 11.2212C1.86157 10.6152 2.3582 10.1185 2.96426 10.1185Z" fill="white"></path><path d="M1.8616 42.9973C2.47608 42.9973 2.96429 43.4939 2.96429 44.0999C2.96429 44.706 2.46766 45.2026 1.8616 45.2026C1.25554 45.2026 0.758911 44.706 0.758911 44.0999C0.758911 43.4939 1.25554 42.9973 1.8616 42.9973Z" fill="white"></path><path d="M6.11244 34.5798C4.32793 34.5798 2.88013 36.0276 2.88013 37.8121C2.88013 39.5966 4.32793 41.0444 6.11244 41.0444C7.89694 41.0444 9.34475 39.5966 9.34475 37.8121C9.34475 36.0276 7.89694 34.5798 6.11244 34.5798ZM6.11244 38.8306C5.5148 38.8306 5.00975 38.3171 5.00975 37.7279C5.00975 37.1387 5.52321 36.6252 6.11244 36.6252C6.70166 36.6252 7.21513 37.1387 7.21513 37.7279C7.21513 38.3171 6.70166 38.8306 6.11244 38.8306Z" fill="white"></path><path d="M3.47769 5.86791C4.92549 5.86791 6.11236 4.68105 6.11236 3.23324C6.11236 1.78544 4.92549 0.598572 3.47769 0.598572C2.02988 0.598572 0.843018 1.78544 0.843018 3.23324C0.843018 4.68105 2.02988 5.86791 3.47769 5.86791ZM3.47769 2.71978C3.73021 2.71978 3.99115 2.9723 3.99115 3.23324C3.99115 3.49418 3.73863 3.74671 3.47769 3.74671C3.21675 3.74671 2.96422 3.49418 2.96422 3.23324C2.96422 2.9723 3.13257 2.71978 3.47769 2.71978Z" fill="white"></path><path d="M39.5887 13.3426C41.6257 13.3426 43.326 11.6423 43.326 9.60528C43.326 7.56825 41.6257 5.86792 39.5887 5.86792C37.5517 5.86792 35.8513 7.56825 35.8513 9.60528C35.8513 11.6423 37.5517 13.3426 39.5887 13.3426ZM39.5887 7.98912C40.4388 7.98912 41.2048 8.67094 41.2048 9.60528C41.2048 10.5396 40.523 11.2214 39.5887 11.2214C38.6543 11.2214 37.9725 10.5396 37.9725 9.60528C37.9725 8.67094 38.6543 7.98912 39.5887 7.98912Z" fill="white"></path></svg> 